<?xml version="1.0" encoding="UTF-8" standalone="no"?>
<svg xmlns:rdf="http://www.w3.org/1999/02/22-rdf-syntax-ns#" xmlns="http://www.w3.org/2000/svg" height="161.102" width="237.238" version="1.1" xmlns:cc="http://creativecommons.org/ns#" xmlns:dc="http://purl.org/dc/elements/1.1/">
 <g transform="translate(-167.095 -439.697)">
  <path d="m300.652 561.941 4.19125 4.20562 9.15625-26.7051-4.19125-4.20562-9.15625 26.7051" fill-rule="evenodd" fill="#231f20"/>
  <g transform="matrix(.124790 0 0 -.12521 164.917 644.972)">
   <path stroke-linejoin="round" d="m1087.71 663.135 33.58-33.588 73.37 213.283-33.58 33.588-73.37-213.283z" stroke="#231f20" stroke-linecap="round" stroke-miterlimit="2.6131" stroke-width="11.8496" fill="none"/>
  </g>
  <path d="m309.808 535.235 4.19125 4.20562 11.185-2.36425-4.19125-4.20563-11.185 2.36426" fill-rule="evenodd" fill="#231f20"/>
  <g transform="matrix(.124790 0 0 -.12521 164.917 644.972)">
   <path stroke-linejoin="round" d="m1161.08 876.418 33.58-33.588 89.64 18.882-33.58 33.588-89.64-18.882z" stroke="#231f20" stroke-linecap="round" stroke-miterlimit="2.6131" stroke-width="11.8496" fill="none"/>
  </g>
  <path d="m320.993 532.871 4.19125 4.20563 1.64875-0.36138 1.66375-0.51749 1.67-0.66213 1.6675-0.79637 1.65125-0.917 1.6275-1.03038 1.595-1.12838 1.55375-1.22024 1.4975-1.29438 1.43625-1.36225 1.3625-1.4175 1.28125-1.4625 1.1875-1.49462 1.08625-1.51751 0.975-1.52737 0.85375-1.528 0.675-1.305 0.67125-1.29625 0.665-1.28875 0.6575-1.28375 0.645-1.28 0.6375-1.28125 0.62375-1.2825 0.61-1.28875 0.5925-1.29375 0.57625-1.30375 0.555-1.31625 0.5375-1.33 0.51125-1.34625 0.48875-1.36625 0.4625-1.38625 0.43625-1.4125 0.37-1.34625 0.32625-1.39875 0.275-1.43375 0.22-1.4625 0.155-1.47375 0.085-1.48 0.007-1.46875-0.0762-1.4525-0.1675-1.415-0.26375-1.37375-0.3675-1.31625-0.4775-1.25125-0.59625-1.17-0.71875-1.08125-0.85-0.9775-4.19125-4.205 0.85 0.9775 0.71875 1.08 0.59625 1.17125 0.47625 1.25 0.36875 1.3175 0.26375 1.37375 0.16875 1.415 0.075 1.45125-0.007 1.47-0.085 1.47875-0.155 1.475-0.22 1.46125-0.275 1.435-0.32625 1.39875-0.37 1.345-0.43625 1.4125-0.4625 1.3875-0.48875 1.36625-0.5125 1.345-0.53625 1.33125-0.555 1.315-0.57625 1.305-0.5925 1.29375-0.61 1.28875-0.62375 1.2825-0.6375 1.28-0.64625 1.28125-0.65625 1.28375-0.665 1.2875-0.67125 1.2975-0.675 1.305-0.85375 1.5275-0.975 1.5275-1.0875 1.5175-1.18625 1.495-1.2825 1.46187-1.36125 1.41751-1.43625 1.36275-1.4975 1.29449-1.55375 1.21975-1.595 1.12888-1.6275 1.02975-1.6525 0.917-1.66625 0.79638-1.67 0.66162-1.66375 0.51863-1.64875 0.36074" fill-rule="evenodd" fill="#231f20"/>
  <g transform="matrix(.124790 0 0 -.12521 164.917 644.972)">
   <path stroke-linejoin="round" d="m1250.72 895.3 33.58-33.588 13.21 2.886 13.34 4.133 13.38 5.288 13.36 6.361 13.23 7.323 13.05 8.229 12.77 9.012 12.45 9.745 12.01 10.338 11.5 10.88 10.92 11.321 10.27 11.68 9.51 11.937 8.71 12.12 7.81 12.198 6.84 12.207 5.42 10.42 5.37 10.35 5.33 10.29 5.27 10.26 5.17 10.22 5.11 10.23 5 10.25 4.89 10.29 4.74 10.33 4.62 10.42 4.45 10.5 4.3 10.63 4.11 10.75 3.91 10.91 3.71 11.08 3.49 11.27 2.96 10.76 2.62 11.17 2.21 11.45 1.76 11.68 1.24 11.77 0.68 11.82 0.06 11.73-0.61 11.6-1.34 11.3-2.12 10.97-2.94 10.52-3.83 9.99-4.77 9.34-5.77 8.63-6.81 7.81-33.59 33.59 6.82-7.81 5.76-8.63 4.78-9.35 3.82-9.98 2.95-10.53 2.11-10.97 1.35-11.3 0.6-11.59-0.06-11.73-0.68-11.82-1.24-11.77-1.76-11.68-2.21-11.46-2.61-11.17-2.97-10.75-3.49-11.27-3.71-11.08-3.91-10.92-4.11-10.74-4.3-10.63-4.45-10.5-4.62-10.43-4.74-10.33-4.89-10.29-5-10.24-5.1-10.23-5.18-10.23-5.27-10.26-5.33-10.28-5.38-10.36-5.4-10.42-6.85-12.2-7.81-12.2-8.71-12.12-9.51-11.938-10.27-11.676-10.91-11.32-11.51-10.885-12.01-10.338-12.45-9.741-12.77-9.016-13.05-8.225-13.24-7.323-13.35-6.361-13.38-5.284-13.33-4.141-13.21-2.882z" stroke="#231f20" stroke-linecap="round" stroke-miterlimit="2.6131" stroke-width="11.8496" fill="none"/>
  </g>
  <path d="m279.573 566.214 4.19087 4.205 21.0791-4.27238-4.19125-4.20562-21.0788 4.273" fill-rule="evenodd" fill="#231f20"/>
  <g transform="matrix(.124790 0 0 -.12521 164.917 644.972)">
   <path stroke-linejoin="round" d="m918.794 629.009 33.584-33.584 168.912 34.122-33.58 33.588-168.916-34.126z" stroke="#231f20" stroke-linecap="round" stroke-miterlimit="2.6131" stroke-width="11.8496" fill="none"/>
  </g>
  <path d="m323.222 497.422 4.19125 4.205-5.3225 14.955-4.19125-4.20625 5.3225-14.9538" fill-rule="evenodd" fill="#231f20"/>
  <g transform="matrix(.124790 0 0 -.12521 164.917 644.972)">
   <path stroke-linejoin="round" d="m1268.57 1178.42 33.59-33.58-42.66-119.44-33.58 33.59 42.65 119.43z" stroke="#231f20" stroke-linecap="round" stroke-miterlimit="2.6131" stroke-width="11.8496" fill="none"/>
  </g>
  <path d="m331.257 497.362 4.19125 4.20625-0.39-0.29625-0.85125-0.3175-0.92625-0.15375-0.98-0.0187-1.00875 0.0837-1.0175 0.15875-1.00125 0.2-0.96125 0.21125-0.89875 0.19125-4.19125-4.205 0.89875-0.19125 0.96125-0.2125 1.00125-0.2 1.0175-0.1575 1.00875-0.0838 0.98 0.0188 0.92625 0.1525 0.85 0.31875 0.39125 0.295" fill-rule="evenodd" fill="#231f20"/>
  <g transform="matrix(.124790 0 0 -.12521 164.917 644.972)">
   <path stroke-linejoin="round" d="m1332.96 1178.9 33.59-33.59-3.13 2.36-6.82 2.54-7.43 1.22-7.85 0.16-8.08-0.68-8.15-1.26-8.02-1.6-7.71-1.69-7.2-1.52-33.59 33.58 7.21 1.53 7.7 1.69 8.02 1.6 8.15 1.26 8.09 0.67 7.85-0.15 7.42-1.22 6.82-2.54 3.13-2.36z" stroke="#231f20" stroke-linecap="round" stroke-miterlimit="2.6131" stroke-width="11.8496" fill="none"/>
  </g>
  <path d="m300.652 561.941 9.15625-26.7051 11.185-2.36426c8.73625-1.4965 18.5512-10.1128 22.7575-18.2369 3.615-6.9975 7.1-13.4688 9.345-21.0625 2.08125-7.035 2.5775-16.6838-3.065-20.965-2.4275-1.84125-6.0775-2.41375-11.4788-1.25l-27.2538 5.76875-31.725 89.088 21.0788-4.273zm22.57-64.5188-5.3225 14.9538c2.61125-0.5225 4.72125-1.06875 6.5-1.95125 2.5975-1.2875 4.9725-3.10625 6.2025-6.99625 1.2275-3.8875 1.49125-5.73375 0.26375-6.36125-2.14375-1.0975-5.3475-0.105-7.64375 0.355" fill-rule="evenodd" fill="#fff200"/>
  <g transform="matrix(.124790 0 0 -.12521 164.917 644.972)">
   <path stroke-linejoin="round" d="m1087.71 663.135 73.37 213.283 89.64 18.882c70 11.952 148.66 80.767 182.36 145.65 28.97 55.89 56.89 107.56 74.88 168.21 16.68 56.19 20.66 133.26-24.56 167.45-19.45 14.7-48.7 19.27-91.98 9.98l-218.39-46.08-254.236-711.501 168.916 34.126zm180.86 515.285-42.65-119.43c20.92 4.17 37.83 8.53 52.09 15.58 20.82 10.28 39.85 24.81 49.7 55.88 9.84 31.04 11.96 45.79 2.12 50.81-17.19 8.76-42.86 0.84-61.26-2.84z" stroke="#231f20" stroke-linecap="round" stroke-miterlimit="2.6131" stroke-width="11.8496" fill="none"/>
  </g>
  <path d="m264.03 486.313 4.1915 4.205-23.8472 33.5406-4.19138-4.20563 23.8471-33.54" fill-rule="evenodd" fill="#231f20"/>
  <g transform="matrix(.124790 0 0 -.12521 164.917 644.972)">
   <path stroke-linejoin="round" d="m794.237 1267.14 33.588-33.58-191.099-267.878-33.587 33.584 191.098 267.874z" stroke="#231f20" stroke-linecap="round" stroke-miterlimit="2.6131" stroke-width="11.8496" fill="none"/>
  </g>
  <path d="m240.183 519.853 4.19138 4.20562-24.0605 33.1142-4.19138-4.20499 24.0605-33.1149" fill-rule="evenodd" fill="#231f20"/>
  <g transform="matrix(.124790 0 0 -.12521 164.917 644.972)">
   <path stroke-linejoin="round" d="m603.139 999.266 33.587-33.584-192.808-264.47-33.588 33.584 192.809 264.47z" stroke="#231f20" stroke-linecap="round" stroke-miterlimit="2.6131" stroke-width="11.8496" fill="none"/>
  </g>
  <path d="m216.122 552.968 4.19138 4.205v0.42725l-4.19138-4.20501v-0.42724" fill-rule="evenodd" fill="#231f20"/>
  <g transform="matrix(.124790 0 0 -.12521 164.917 644.972)">
   <path stroke-linejoin="round" d="m410.33 734.796 33.588-33.584v-3.412l-33.588 33.584v3.412z" stroke="#231f20" stroke-linecap="round" stroke-miterlimit="2.6131" stroke-width="11.8496" fill="none"/>
  </g>
  <path d="m239.544 548.268 4.19137 4.20562-10.0069 27.559-4.19188-4.2055 10.0074-27.5591" fill-rule="evenodd" fill="#231f20"/>
  <g transform="matrix(.124790 0 0 -.12521 164.917 644.972)">
   <path stroke-linejoin="round" d="m598.017 772.335 33.588-33.588-80.19-220.103-33.592 33.588 80.194 220.103z" stroke="#231f20" stroke-linecap="round" stroke-miterlimit="2.6131" stroke-width="11.8496" fill="none"/>
  </g>
  <path d="m229.536 575.827 4.19188 4.2055-57.7016 11.9639-4.1919-4.20499 57.7016-11.9644" fill-rule="evenodd" fill="#231f20"/>
  <g transform="matrix(.124790 0 0 -.12521 164.917 644.972)">
   <path stroke-linejoin="round" d="m517.823 552.232 33.592-33.588-462.39-95.55-33.5916 33.584 462.39 95.554z" stroke="#231f20" stroke-linecap="round" stroke-miterlimit="2.6131" stroke-width="11.8496" fill="none"/>
  </g>
  <path d="m220.807 519.213 4.19138 4.205-0.64062 0.34475-0.68451 0.34225-0.71875 0.336-0.74025 0.32025-0.75337 0.30087-0.753 0.27151-0.74075 0.23962-0.71775 0.19488-4.19088-4.20551 0.71725-0.19537 0.74076-0.23875 0.75287-0.2715 0.754-0.30125 0.74025-0.32037 0.71775-0.33613 0.6855-0.3425 0.64012-0.34375" fill-rule="evenodd" fill="#231f20"/>
  <g transform="matrix(.124790 0 0 -.12521 164.917 644.972)">
   <path stroke-linejoin="round" d="m447.87 1004.39 33.588-33.592-5.134-2.753-5.486-2.734-5.759-2.683-5.932-2.558-6.038-2.402-6.033-2.168-5.936-1.915-5.752-1.556-33.584 33.588 5.748 1.56 5.936 1.907 6.034 2.168 6.041 2.406 5.932 2.558 5.752 2.683 5.493 2.731 5.13 2.76z" stroke="#231f20" stroke-linecap="round" stroke-miterlimit="2.6131" stroke-width="11.8496" fill="none"/>
  </g>
  <path d="m215.058 521.563 4.19088 4.20551-16.395 3.20462-4.19088-4.20612 16.395-3.20401" fill-rule="evenodd" fill="#231f20"/>
  <g transform="matrix(.124790 0 0 -.12521 164.917 644.972)">
   <path stroke-linejoin="round" d="m401.804 985.617 33.584-33.588-131.381-25.594-33.584 33.592 131.381 25.59z" stroke="#231f20" stroke-linecap="round" stroke-miterlimit="2.6131" stroke-width="11.8496" fill="none"/>
  </g>
  <path d="m208.245 497.849 55.7851-11.5362-23.8471 33.54-24.0605 33.1149v0.42724c1.79238-0.44925 3.55363-0.96337 5.32325-1.49562l18.0981-3.63187-10.0074 27.5591-57.7016 11.9644 39.6035-56.6148c3.32175-3.70312 6.42387-7.73974 9.36862-11.7496v-0.21375c-1.63325 0.90963-3.872 1.88713-5.7485 2.34962l-16.395 3.204 9.5815-26.9174" fill-rule="evenodd" fill="#fff200"/>
  <g transform="matrix(.124790 0 0 -.12521 164.917 644.972)">
   <path stroke-linejoin="round" d="m347.205 1175.01 447.032 92.13-191.098-267.874-192.809-264.47v-3.412c14.364 3.588 28.478 7.694 42.658 11.945l145.029 29.006-80.194-220.103-462.39-95.554 317.362 452.158c26.619 29.575 51.477 61.814 75.075 93.844v1.71c-13.088-7.273-31.029-15.08-46.066-18.773l-131.381-25.59 76.782 214.983z" stroke="#231f20" stroke-linecap="round" stroke-miterlimit="2.6131" stroke-width="11.8496" fill="none"/>
  </g>
  <path d="m357.716 589.286 4.19125 4.2055 3.8325-13.4595-4.19125-4.2055-3.8325 13.4595" fill-rule="evenodd" fill="#231f20"/>
  <g transform="matrix(.124790 0 0 -.12521 164.917 644.972)">
   <path stroke-linejoin="round" d="m1544.99 444.737 33.58-33.588 30.71 107.495-33.58 33.588-30.71-107.495z" stroke="#231f20" stroke-linecap="round" stroke-miterlimit="2.6131" stroke-width="11.8496" fill="none"/>
  </g>
  <path d="m347.07 591.85 4.19125 4.20562 10.6462-2.5635-4.19125-4.2055-10.6462 2.56338" fill-rule="evenodd" fill="#231f20"/>
  <g transform="matrix(.124790 0 0 -.12521 164.917 644.972)">
   <path stroke-linejoin="round" d="m1459.67 424.263 33.59-33.588 85.31 20.474-33.58 33.588-85.32-20.474z" stroke="#231f20" stroke-linecap="round" stroke-miterlimit="2.6131" stroke-width="11.8496" fill="none"/>
  </g>
  <path d="m361.975 498.917 4.19 4.205 7.87875-1.495-4.19125-4.205-7.8775 1.495" fill-rule="evenodd" fill="#231f20"/>
  <g transform="matrix(.124790 0 0 -.12521 164.917 644.972)">
   <path stroke-linejoin="round" d="m1579.11 1166.48 33.58-33.59 63.14 11.95-33.59 33.58-63.13-11.94z" stroke="#231f20" stroke-linecap="round" stroke-miterlimit="2.6131" stroke-width="11.8496" fill="none"/>
  </g>
  <path d="m360.485 530.109 4.19 4.205 7.24-1.06788-4.19125-4.2055-7.23875 1.06838" fill-rule="evenodd" fill="#231f20"/>
  <g transform="matrix(.124790 0 0 -.12521 164.917 644.972)">
   <path stroke-linejoin="round" d="m1567.17 917.364 33.58-33.584 58.01 8.529-33.58 33.588-58.01-8.533z" stroke="#231f20" stroke-linecap="round" stroke-miterlimit="2.6131" stroke-width="11.8496" fill="none"/>
  </g>
  <path d="m357.29 568.99 4.19125 4.20562 13.2012-29.9091-4.19125-4.20562-13.2012 29.9091" fill-rule="evenodd" fill="#231f20"/>
  <g transform="matrix(.124790 0 0 -.12521 164.917 644.972)">
   <path stroke-linejoin="round" d="m1541.57 606.832 33.59-33.588 105.79 238.872-33.59 33.588-105.79-238.872z" stroke="#231f20" stroke-linecap="round" stroke-miterlimit="2.6131" stroke-width="11.8496" fill="none"/>
  </g>
  <path d="m370.491 539.081 4.19125 4.20562 12.775-29.91-4.19125-4.205-12.775 29.9094" fill-rule="evenodd" fill="#231f20"/>
  <g transform="matrix(.124790 0 0 -.12521 164.917 644.972)">
   <path stroke-linejoin="round" d="m1647.36 845.704 33.59-33.588 102.37 238.874-33.59 33.59-102.37-238.876z" stroke="#231f20" stroke-linecap="round" stroke-miterlimit="2.6131" stroke-width="11.8496" fill="none"/>
  </g>
  <path d="m375.388 510.881 4.19125 4.205 11.4975-29.0538-4.19125-4.20625-11.4975 29.055" fill-rule="evenodd" fill="#231f20"/>
  <g transform="matrix(.124790 0 0 -.12521 164.917 644.972)">
   <path stroke-linejoin="round" d="m1686.6 1070.93 33.59-33.59 92.14 232.05-33.59 33.59-92.14-232.05z" stroke="#231f20" stroke-linecap="round" stroke-miterlimit="2.6131" stroke-width="11.8496" fill="none"/>
  </g>
  <path d="m379.647 483.108 4.19125 4.205 15.7562-38.6688-4.1925-4.205-15.755 38.6688" fill-rule="evenodd" fill="#231f20"/>
  <g transform="matrix(.124790 0 0 -.12521 164.917 644.972)">
   <path stroke-linejoin="round" d="m1720.73 1292.74 33.59-33.59 126.26 308.83-33.59 33.59-126.26-308.83z" stroke="#231f20" stroke-linecap="round" stroke-miterlimit="2.6131" stroke-width="11.8496" fill="none"/>
  </g>
  <path d="m357.716 589.286 3.8325-13.4595-10.6462 2.35013-3.8325 13.6728 10.6462-2.56338zm37.6862-144.847-16.82 3.4175-16.6075 51.06 7.8775-1.495-9.3675 32.6868 7.23875-1.06838-10.4338 39.9501 13.2012-29.9091 12.775-29.9094-7.8775 1.70875 11.4975-29.055-7.23875 1.2825 15.755-38.6688" fill-rule="evenodd" fill="#fff200"/>
  <g transform="matrix(.124790 0 0 -.12521 164.917 644.972)">
   <path stroke-linejoin="round" d="m1544.99 444.737 30.71 107.495-85.32-18.769-30.71-109.2 85.32 20.474zm302 1156.83-134.79-27.3-133.09-407.79 63.13 11.94-75.07-261.056 58.01 8.533-83.61-319.065 105.79 238.872 102.37 238.876-63.13-13.65 92.14 232.05-58.01-10.24 126.26 308.83z" stroke="#231f20" stroke-linecap="round" stroke-miterlimit="2.6131" stroke-width="11.8496" fill="none"/>
  </g>
  <path d="m270.418 548.054 4.19188 4.20563 20.6526-4.05913-4.19125-4.2055-20.6532 4.059" fill-rule="evenodd" fill="#231f20"/>
  <g transform="matrix(.124790 0 0 -.12521 164.917 644.972)">
   <path stroke-linejoin="round" d="m845.425 774.043 33.592-33.588 165.503 32.418-33.59 33.588-165.505-32.418z" stroke="#231f20" stroke-linecap="round" stroke-miterlimit="2.6131" stroke-width="11.8496" fill="none"/>
  </g>
  <path d="m291.071 543.995 4.19125 4.2055 9.15625-76.0548-4.1925-4.20625-9.155 76.0555" fill-rule="evenodd" fill="#231f20"/>
  <g transform="matrix(.124790 0 0 -.12521 164.917 644.972)">
   <path stroke-linejoin="round" d="m1010.93 806.461 33.59-33.588 73.37 607.417-33.59 33.6-73.37-607.429z" stroke="#231f20" stroke-linecap="round" stroke-miterlimit="2.6131" stroke-width="11.8496" fill="none"/>
  </g>
  <path d="m231.453 556.172 4.19138 4.20512 20.4405-4.2725-4.19088-4.2055-20.441 4.27288" fill-rule="evenodd" fill="#231f20"/>
  <g transform="matrix(.124790 0 0 -.12521 164.917 644.972)">
   <path stroke-linejoin="round" d="m533.181 709.203 33.588-33.585 163.799 34.123-33.584 33.588-163.803-34.126z" stroke="#231f20" stroke-linecap="round" stroke-miterlimit="2.6131" stroke-width="11.8496" fill="none"/>
  </g>
  <path d="m251.894 551.9 4.19088 4.2055 5.32325-10.041-4.19138-4.2055-5.32275 10.041" fill-rule="evenodd" fill="#231f20"/>
  <g transform="matrix(.124790 0 0 -.12521 164.917 644.972)">
   <path stroke-linejoin="round" d="m696.984 743.329 33.584-33.588 42.657 80.193-33.587 33.588-42.654-80.193z" stroke="#231f20" stroke-linecap="round" stroke-miterlimit="2.6131" stroke-width="11.8496" fill="none"/>
  </g>
  <path d="m257.216 541.859 4.19138 4.2055 14.6919-3.2045-4.19187-4.20562-14.6914 3.20462" fill-rule="evenodd" fill="#231f20"/>
  <g transform="matrix(.124790 0 0 -.12521 164.917 644.972)">
   <path stroke-linejoin="round" d="m739.638 823.522 33.587-33.588 117.733 25.594-33.591 33.588-117.729-25.594z" stroke="#231f20" stroke-linecap="round" stroke-miterlimit="2.6131" stroke-width="11.8496" fill="none"/>
  </g>
  <path d="m279.573 496.781 4.19087 4.20625h0.85213l-4.19138-4.20625h-0.85162" fill-rule="evenodd" fill="#231f20"/>
  <g transform="matrix(.124790 0 0 -.12521 164.917 644.972)">
   <path stroke-linejoin="round" d="m918.794 1183.54 33.584-33.59h6.828l-33.588 33.59h-6.824z" stroke="#231f20" stroke-linecap="round" stroke-miterlimit="2.6131" stroke-width="11.8496" fill="none"/>
  </g>
  <path d="m267.649 521.99 4.1915 4.205 11.9232-25.2081-4.19087-4.20625-11.9239 25.2094" fill-rule="evenodd" fill="#231f20"/>
  <g transform="matrix(.124790 0 0 -.12521 164.917 644.972)">
   <path stroke-linejoin="round" d="m823.243 982.205 33.588-33.585 95.547 201.33-33.584 33.59-95.551-201.335z" stroke="#231f20" stroke-linecap="round" stroke-miterlimit="2.6131" stroke-width="11.8496" fill="none"/>
  </g>
  <path d="m271.908 538.654-1.49025 9.39987 20.6532-4.059 9.155-76.0555-21.717 4.48625-47.0561 83.7469 20.441-4.27288 5.32275-10.041 14.6914-3.20462zm7.6655-41.8734h0.85162l-5.10987 23.5004-7.66563 1.709 11.9239-25.2094" fill-rule="evenodd" fill="#fff200"/>
  <g transform="matrix(.124790 0 0 -.12521 164.917 644.972)">
   <path stroke-linejoin="round" d="m857.367 849.116-11.942-75.073 165.505 32.418 73.37 607.429-174.036-35.84-377.083-668.847 163.803 34.126 42.654 80.193 117.729 25.594zm61.427 334.424h6.824l-40.947-187.686-61.428-13.649 95.551 201.335z" stroke="#231f20" stroke-linecap="round" stroke-miterlimit="2.6131" stroke-width="11.8496" fill="none"/>
  </g>
  <path d="m359.26 468.902c1.0925 0 2.02125 0.38125 2.78625 1.145 0.76375 0.7625 1.14625 1.69375 1.14625 2.79125 0 0.5475-0.0987 1.0575-0.295 1.53-0.29375 0.7175-0.77875 1.2975-1.45625 1.74-0.67625 0.44375-1.40375 0.665-2.18125 0.665-1.06625 0-1.985-0.38875-2.75625-1.165-0.77125-0.77875-1.15625-1.70125-1.15625-2.77 0-0.70375 0.1925-1.38625 0.5775-2.0475 0.35125-0.605 0.81875-1.07125 1.40375-1.39875 0.58625-0.32625 1.23-0.49 1.93125-0.49zm0.01 0.64375c-0.8975 0-1.655 0.3125-2.2725 0.93875-0.665 0.675-0.99875 1.45625-0.99875 2.3425 0 0.89375 0.32125 1.6675 0.9625 2.32125s1.4075 0.98125 2.29875 0.98125c0.8825 0 1.65-0.31625 2.3025-0.95 0.6525-0.6325 0.9775-1.3925 0.9775-2.27875 0-0.9425-0.31125-1.7375-0.93625-2.385-0.62375-0.64625-1.40125-0.97-2.33375-0.97zm0.0737 1.03375c1.24125 0 1.86125 0.41875 1.86125 1.25625 0 0.605-0.31625 0.99125-0.94625 1.16l0.73625 1.12875c0.13875 0.21875 0.21 0.44375 0.21 0.67625 0 0.0838-0.0613 0.1575-0.185 0.22125-0.1225 0.0638-0.2325 0.095-0.33 0.095-0.20375 0-0.3925-0.1475-0.56875-0.44375l-0.90375-1.51875h-0.51625v1.2875c0 0.45-0.18125 0.675-0.54625 0.675-0.34375 0-0.51625-0.225-0.51625-0.675v-3.24c0-0.415 0.1725-0.6225 0.51625-0.6225h1.18875zm-0.6425 0.675v1.26625h0.51625c0.595 0 0.89375-0.2075 0.89375-0.6225 0-0.42875-0.315-0.64375-0.94625-0.64375h-0.46375" fill-rule="evenodd" fill="#231f20"/>
 </g>
</svg>
