<svg width="200" height="119"><defs id="SvgjsDefs2348"></defs><g id="SvgjsG2349" featurekey="root" fill="#ffffff"></g><g id="SvgjsG2350" featurekey="text1" fill="#ffffff" transform="matrix(6.568047320805317,0,0,6.568047320805317,-3.4153844815432044,-22.840236604026586)"><path d="M0.52 6.859999999999999 l0 -1.8 l3.54 0 l1.7 5.36 l1.64 6.26 l0.06 0 l-0.4 -6.36 l0 -5.26 l1.78 0 l0 14.94 l-1.94 0 l-2.34 -7.36 l-1.36 -4.9 l-0.06 0 l0.24 5.06 l0 7.2 l-1.78 0 l0 -12.54 l0.76 -0.46 l0 -0.14 l-1.84 0 z M16.14 14.280000000000001 l-1.12 -7.44 l-0.38 0 l-1.1 7.44 l2.6 0 z M11.9 6.84 l0 -1.82 l4.7 0 l2.22 14.98 l-1.84 0 l-0.58 -3.9 l-3.12 0 l-0.58 3.9 l-1.84 0 l1.84 -12.56 l0.76 -0.46 l0 -0.14 l-1.56 0 z M23.040000000000003 20 l0 -13.36 l-1.62 0 l-0.08 1.58 l-1.48 0 l0 -3.22 l8.22 0 l0 3.22 l-1.5 0 l-0.06 -1.58 l-1.66 0 l0 13.36 l-1.82 0 z M30.94 18.14 l0 1.86 l-1.8 0 l0 -1.86 l1.8 0 z"></path></g></svg>